<svg width="5" height="20" viewBox="0 0 5 20" fill="none" xmlns="http://www.w3.org/2000/svg">
<path d="M2.22224 4.44448C3.44955 4.44448 4.44448 3.44955 4.44448 2.22224C4.44448 0.994931 3.44955 0 2.22224 0C0.994931 0 0 0.994931 0 2.22224C0 3.44955 0.994931 4.44448 2.22224 4.44448Z" fill="white"/>
<path d="M2.22224 4.44448C3.44955 4.44448 4.44448 3.44955 4.44448 2.22224C4.44448 0.994931 3.44955 0 2.22224 0C0.994931 0 0 0.994931 0 2.22224C0 3.44955 0.994931 4.44448 2.22224 4.44448Z" transform="translate(0 7.77777)" fill="white"/>
<path d="M2.22224 4.44448C3.44955 4.44448 4.44448 3.44955 4.44448 2.22224C4.44448 0.994931 3.44955 0 2.22224 0C0.994931 0 0 0.994931 0 2.22224C0 3.44955 0.994931 4.44448 2.22224 4.44448Z" transform="translate(0 15.5555)" fill="white"/>
</svg>
