<svg width="21" height="20" viewBox="0 0 21 20" fill="none" xmlns="http://www.w3.org/2000/svg">
<path d="M20.9168 7.41744C20.86 7.15541 20.6093 6.9957 20.3359 6.9957H13.3742L11.0957 0.421736C10.9965 0.135623 10.7994 1.0193e-08 10.4917 1.0193e-08C10.1842 1.0193e-08 9.97569 0.135623 9.87652 0.421736L7.59775 6.9957H0.636345C0.328616 6.9957 0.134893 7.13256 0.032328 7.41744C-0.047422 7.72493 0.0201668 7.9539 0.237458 8.12378L5.82047 12.4876L3.79233 19.1755C3.70336 19.4691 3.79233 19.711 4.02031 19.8819C4.2709 20.0301 4.53344 20.0484 4.77211 19.8819L10.4917 15.8941L16.1999 19.8819C16.3216 19.9669 16.4507 19.9958 16.5759 19.9958C16.9291 19.9958 17.2025 19.7224 17.2025 19.3692C17.2025 19.3123 17.1947 19.2314 17.1571 19.1072L15.1518 12.4876L20.7345 8.12378C20.9591 7.94828 21.0194 7.71348 20.9168 7.41744ZM14.0351 11.7584C13.8431 11.9083 13.749 12.1993 13.8188 12.4304L15.4367 17.7969L10.8335 14.6066C10.6023 14.4464 10.3619 14.4517 10.1385 14.6066L5.53559 17.7969L7.15344 12.4304C7.22319 12.1993 7.12915 11.9083 6.93687 11.7584L2.45936 8.26039H8.06495C8.34979 8.26039 8.54646 8.12477 8.64612 7.8389L10.4917 2.5408L12.3261 7.8389C12.4251 8.12501 12.6224 8.26039 12.9185 8.26039H18.5129L14.0351 11.7584Z" fill="white"/>
</svg>
