<svg width="375" height="30" viewBox="0 0 375 30" fill="none" xmlns="http://www.w3.org/2000/svg">
<g filter="url(#filter0_d)">
<path fill-rule="evenodd" clip-rule="evenodd" d="M5.99575 1.52088C7.93552 1.52088 9.70336 2.23545 11.0589 3.40718L12 2.36811C10.3946 0.974466 8.29789 0 5.99575 0C3.69711 0 1.6034 0.971507 0 2.36071L0.939148 3.40126C2.29364 2.23299 4.05848 1.52088 5.99575 1.52088Z" transform="translate(84.6191 7)" fill="white"/>
<path fill-rule="evenodd" clip-rule="evenodd" d="M4.03449 1.51989C5.19705 1.51989 6.25915 1.94203 7.07835 2.63737L8.07397 1.53764C6.99038 0.607562 5.58091 0 4.03449 0C2.49107 0 1.08259 0.606082 0 1.53321L0.994127 2.63441C1.81282 1.94055 2.87342 1.51989 4.03449 1.51989Z" transform="translate(86.5804 10.0003)" fill="white"/>
<path fill-rule="evenodd" clip-rule="evenodd" d="M4.09396 0.778685C3.53967 0.318575 2.82594 0 2.04573 0C1.26702 0 0.554292 0.318082 0 0.776219L2.04573 3.04126L4.09396 0.778685Z" transform="translate(88.5687 12.9587)" fill="white"/>
<path fill-rule="evenodd" clip-rule="evenodd" d="M2.75 5.5C4.26878 5.5 5.5 4.26878 5.5 2.75C5.5 1.23122 4.26878 0 2.75 0C1.23122 0 0 1.23122 0 2.75C0 4.26878 1.23122 5.5 2.75 5.5Z" transform="translate(6.61914 9)" fill="white"/>
<path fill-rule="evenodd" clip-rule="evenodd" d="M2.75 5.5C4.26878 5.5 5.5 4.26878 5.5 2.75C5.5 1.23122 4.26878 0 2.75 0C1.23122 0 0 1.23122 0 2.75C0 4.26878 1.23122 5.5 2.75 5.5Z" transform="translate(13.6191 9)" fill="white"/>
<path fill-rule="evenodd" clip-rule="evenodd" d="M2.75 5.5C4.26878 5.5 5.5 4.26878 5.5 2.75C5.5 1.23122 4.26878 0 2.75 0C1.23122 0 0 1.23122 0 2.75C0 4.26878 1.23122 5.5 2.75 5.5Z" transform="translate(20.6191 9)" fill="white"/>
<path fill-rule="evenodd" clip-rule="evenodd" d="M2.75 5C3.99264 5 5 3.99264 5 2.75C5 1.50736 3.99264 0.5 2.75 0.5C1.50736 0.5 0.5 1.50736 0.5 2.75C0.5 3.99264 1.50736 5 2.75 5ZM2.75 5.5C1.23122 5.5 0 4.26878 0 2.75C0 1.23122 1.23122 0 2.75 0C4.26878 0 5.5 1.23122 5.5 2.75C5.5 4.26878 4.26878 5.5 2.75 5.5Z" transform="translate(27.6191 9)" fill="white"/>
<path fill-rule="evenodd" clip-rule="evenodd" d="M2.75 5C3.99264 5 5 3.99264 5 2.75C5 1.50736 3.99264 0.5 2.75 0.5C1.50736 0.5 0.5 1.50736 0.5 2.75C0.5 3.99264 1.50736 5 2.75 5ZM2.75 5.5C1.23122 5.5 0 4.26878 0 2.75C0 1.23122 1.23122 0 2.75 0C4.26878 0 5.5 1.23122 5.5 2.75C5.5 4.26878 4.26878 5.5 2.75 5.5Z" transform="translate(34.6191 9)" fill="white"/>
<path d="M2.256 -1.632V1.668H6.6V2.436H2.256V6H1.368V-2.4H7.128V-1.632H2.256ZM8.66456 -0.312H9.51656V6H8.66456V-0.312ZM9.09656 -1.692C8.92056 -1.692 8.77256 -1.752 8.65256 -1.872C8.53256 -1.992 8.47256 -2.136 8.47256 -2.304C8.47256 -2.464 8.53256 -2.604 8.65256 -2.724C8.77256 -2.844 8.92056 -2.904 9.09656 -2.904C9.27256 -2.904 9.42056 -2.844 9.54056 -2.724C9.66056 -2.612 9.72056 -2.476 9.72056 -2.316C9.72056 -2.14 9.66056 -1.992 9.54056 -1.872C9.42056 -1.752 9.27256 -1.692 9.09656 -1.692ZM17.7312 -0.312V5.232C17.7312 6.304 17.4672 7.096 16.9392 7.608C16.4192 8.128 15.6312 8.388 14.5752 8.388C13.9912 8.388 13.4352 8.3 12.9072 8.124C12.3872 7.956 11.9632 7.72 11.6352 7.416L12.0672 6.768C12.3712 7.04 12.7392 7.252 13.1712 7.404C13.6112 7.556 14.0712 7.632 14.5512 7.632C15.3512 7.632 15.9392 7.444 16.3152 7.068C16.6912 6.7 16.8792 6.124 16.8792 5.34V4.536C16.6152 4.936 16.2672 5.24 15.8352 5.448C15.4112 5.656 14.9392 5.76 14.4192 5.76C13.8272 5.76 13.2872 5.632 12.7992 5.376C12.3192 5.112 11.9392 4.748 11.6592 4.284C11.3872 3.812 11.2512 3.28 11.2512 2.688C11.2512 2.096 11.3872 1.568 11.6592 1.104C11.9392 0.64 12.3192 0.28 12.7992 0.024C13.2792 -0.232 13.8192 -0.36 14.4192 -0.36C14.9552 -0.36 15.4392 -0.252 15.8712 -0.0360003C16.3032 0.18 16.6512 0.492 16.9152 0.9V-0.312H17.7312ZM14.5032 5.004C14.9592 5.004 15.3712 4.908 15.7392 4.716C16.1072 4.516 16.3912 4.24 16.5912 3.888C16.7992 3.536 16.9032 3.136 16.9032 2.688C16.9032 2.24 16.7992 1.844 16.5912 1.5C16.3912 1.148 16.1072 0.876 15.7392 0.684C15.3792 0.484 14.9672 0.384 14.5032 0.384C14.0472 0.384 13.6352 0.48 13.2672 0.672C12.9072 0.864 12.6232 1.136 12.4152 1.488C12.2152 1.84 12.1152 2.24 12.1152 2.688C12.1152 3.136 12.2152 3.536 12.4152 3.888C12.6232 4.24 12.9072 4.516 13.2672 4.716C13.6352 4.908 14.0472 5.004 14.5032 5.004ZM27.9858 -0.36C28.7778 -0.36 29.3978 -0.132 29.8458 0.324C30.3018 0.78 30.5298 1.452 30.5298 2.34V6H29.6778V2.424C29.6778 1.768 29.5178 1.268 29.1978 0.924C28.8858 0.58 28.4418 0.408 27.8658 0.408C27.2098 0.408 26.6938 0.612 26.3178 1.02C25.9418 1.42 25.7538 1.976 25.7538 2.688V6H24.9018V2.424C24.9018 1.768 24.7418 1.268 24.4218 0.924C24.1098 0.58 23.6618 0.408 23.0778 0.408C22.4298 0.408 21.9138 0.612 21.5298 1.02C21.1538 1.42 20.9658 1.976 20.9658 2.688V6H20.1138V-0.312H20.9298V0.84C21.1538 0.456 21.4658 0.16 21.8658 -0.0480001C22.2658 -0.256 22.7258 -0.36 23.2458 -0.36C23.7738 -0.36 24.2298 -0.248 24.6138 -0.0239997C25.0058 0.2 25.2978 0.532 25.4898 0.972C25.7218 0.556 26.0538 0.232 26.4858 0C26.9258 -0.24 27.4258 -0.36 27.9858 -0.36ZM35.0483 -0.36C35.8723 -0.36 36.5043 -0.152 36.9443 0.264C37.3843 0.672 37.6043 1.28 37.6043 2.088V6H36.7883V5.016C36.5963 5.344 36.3123 5.6 35.9363 5.784C35.5683 5.968 35.1283 6.06 34.6163 6.06C33.9123 6.06 33.3523 5.892 32.9363 5.556C32.5203 5.22 32.3123 4.776 32.3123 4.224C32.3123 3.688 32.5043 3.256 32.8883 2.928C33.2803 2.6 33.9003 2.436 34.7483 2.436H36.7523V2.052C36.7523 1.508 36.6003 1.096 36.2963 0.816C35.9923 0.528 35.5483 0.384 34.9643 0.384C34.5643 0.384 34.1803 0.452 33.8123 0.588C33.4443 0.716 33.1283 0.896 32.8643 1.128L32.4803 0.492C32.8003 0.22 33.1843 0.0120001 33.6323 -0.132C34.0803 -0.284 34.5523 -0.36 35.0483 -0.36ZM34.7483 5.388C35.2283 5.388 35.6403 5.28 35.9843 5.064C36.3283 4.84 36.5843 4.52 36.7523 4.104V3.072H34.7723C33.6923 3.072 33.1523 3.448 33.1523 4.2C33.1523 4.568 33.2923 4.86 33.5723 5.076C33.8523 5.284 34.2443 5.388 34.7483 5.388Z" transform="translate(43 10)" fill="white"/>
<path fill-rule="evenodd" clip-rule="evenodd" d="M1.50246 0.526306C0.947213 0.526306 0.5 0.995531 0.5 1.579V8.42098C0.5 9.00188 0.949064 9.47367 1.50246 9.47367H20.9975C21.5528 9.47367 22 9.00445 22 8.42098V1.579C22 0.998097 21.5509 0.526306 20.9975 0.526306H1.50246ZM1.50246 0H20.9975C21.8266 0 22.5 0.706948 22.5 1.57901V8.42099C22.5 9.29682 21.8273 10 20.9975 10H1.50246C0.67338 10 0 9.29305 0 8.42099V1.57901C0 0.703181 0.672674 0 1.50246 0Z" transform="translate(345.119 6.5)" fill="white"/>
<path fill-rule="evenodd" clip-rule="evenodd" d="M0.5 0C0.223858 0 0 0.223858 0 0.5V7.5C0 7.77614 0.223858 8 0.5 8H9V0H0.5Z" transform="translate(346.119 7.5)" fill="white"/>
<path fill-rule="evenodd" clip-rule="evenodd" d="M1.5 1.73228C1.5 2.6139 0.848073 3.34325 0 3.46456V0C0.848073 0.121306 1.5 0.850659 1.5 1.73228Z" transform="translate(368.119 10)" fill="white"/>
<path d="M7.764 9.792H6.084V12H5.22V9.792H0.48V9.168L4.932 3.6H5.892L1.596 9.024H5.244V7.08H6.084V9.024H7.764V9.792ZM14.2467 11.232V12H8.35472V11.388L11.8467 7.968C12.2867 7.536 12.5827 7.164 12.7347 6.852C12.8947 6.532 12.9747 6.212 12.9747 5.892C12.9747 5.396 12.8027 5.012 12.4587 4.74C12.1227 4.46 11.6387 4.32 11.0067 4.32C10.0227 4.32 9.25872 4.632 8.71472 5.256L8.10272 4.728C8.43072 4.344 8.84672 4.048 9.35072 3.84C9.86272 3.632 10.4387 3.528 11.0787 3.528C11.9347 3.528 12.6107 3.732 13.1067 4.14C13.6107 4.54 13.8627 5.092 13.8627 5.796C13.8627 6.228 13.7667 6.644 13.5747 7.044C13.3827 7.444 13.0187 7.904 12.4827 8.424L9.62672 11.232H14.2467ZM17.2242 8.1C16.6562 8.1 16.1962 7.892 15.8442 7.476C15.5002 7.052 15.3282 6.5 15.3282 5.82C15.3282 5.14 15.5002 4.592 15.8442 4.176C16.1962 3.752 16.6562 3.54 17.2242 3.54C17.7842 3.54 18.2402 3.748 18.5922 4.164C18.9442 4.58 19.1202 5.132 19.1202 5.82C19.1202 6.508 18.9442 7.06 18.5922 7.476C18.2402 7.892 17.7842 8.1 17.2242 8.1ZM22.3122 3.6H23.0202L17.2842 12H16.5762L22.3122 3.6ZM17.2242 7.56C17.6162 7.56 17.9282 7.408 18.1602 7.104C18.4002 6.792 18.5202 6.364 18.5202 5.82C18.5202 5.276 18.4002 4.852 18.1602 4.548C17.9282 4.236 17.6162 4.08 17.2242 4.08C16.8242 4.08 16.5082 4.236 16.2762 4.548C16.0442 4.86 15.9282 5.284 15.9282 5.82C15.9282 6.356 16.0442 6.78 16.2762 7.092C16.5082 7.404 16.8242 7.56 17.2242 7.56ZM22.3722 12.06C21.8122 12.06 21.3562 11.852 21.0042 11.436C20.6522 11.012 20.4762 10.46 20.4762 9.78C20.4762 9.1 20.6522 8.552 21.0042 8.136C21.3562 7.712 21.8122 7.5 22.3722 7.5C22.9402 7.5 23.3962 7.712 23.7402 8.136C24.0922 8.552 24.2682 9.1 24.2682 9.78C24.2682 10.46 24.0922 11.012 23.7402 11.436C23.3962 11.852 22.9402 12.06 22.3722 12.06ZM22.3722 11.52C22.7722 11.52 23.0882 11.364 23.3202 11.052C23.5522 10.74 23.6682 10.316 23.6682 9.78C23.6682 9.244 23.5522 8.82 23.3202 8.508C23.0882 8.196 22.7722 8.04 22.3722 8.04C21.9802 8.04 21.6642 8.196 21.4242 8.508C21.1922 8.812 21.0762 9.236 21.0762 9.78C21.0762 10.324 21.1922 10.752 21.4242 11.064C21.6642 11.368 21.9802 11.52 22.3722 11.52Z" transform="translate(315.119 4.5)" fill="white"/>
<path d="M0 2.5L5 7.5L2.85714 10V0L5 2.5L0 7.5" transform="translate(305.119 6.5)" stroke="white" stroke-linecap="square"/>
<path d="M4.104 6.972C4.656 6.972 5.144 7.076 5.568 7.284C6 7.492 6.336 7.788 6.576 8.172C6.816 8.548 6.936 8.988 6.936 9.492C6.936 10.004 6.812 10.456 6.564 10.848C6.316 11.24 5.972 11.544 5.532 11.76C5.1 11.968 4.612 12.072 4.068 12.072C2.956 12.072 2.104 11.708 1.512 10.98C0.92 10.244 0.624 9.208 0.624 7.872C0.624 6.936 0.784 6.144 1.104 5.496C1.424 4.848 1.872 4.36 2.448 4.032C3.024 3.696 3.696 3.528 4.464 3.528C5.296 3.528 5.96 3.68 6.456 3.984L6.108 4.68C5.708 4.416 5.164 4.284 4.476 4.284C3.548 4.284 2.82 4.58 2.292 5.172C1.764 5.756 1.5 6.608 1.5 7.728C1.5 7.928 1.512 8.156 1.536 8.412C1.744 7.956 2.076 7.604 2.532 7.356C2.988 7.1 3.512 6.972 4.104 6.972ZM4.032 11.34C4.64 11.34 5.132 11.176 5.508 10.848C5.892 10.512 6.084 10.068 6.084 9.516C6.084 8.964 5.892 8.524 5.508 8.196C5.132 7.868 4.62 7.704 3.972 7.704C3.548 7.704 3.172 7.784 2.844 7.944C2.524 8.104 2.272 8.324 2.088 8.604C1.904 8.884 1.812 9.196 1.812 9.54C1.812 9.86 1.896 10.156 2.064 10.428C2.24 10.7 2.496 10.92 2.832 11.088C3.168 11.256 3.568 11.34 4.032 11.34ZM8.5845 6.948C8.4085 6.948 8.2565 6.884 8.1285 6.756C8.0085 6.628 7.9485 6.472 7.9485 6.288C7.9485 6.104 8.0085 5.952 8.1285 5.832C8.2565 5.704 8.4085 5.64 8.5845 5.64C8.7605 5.64 8.9125 5.704 9.0405 5.832C9.1685 5.952 9.2325 6.104 9.2325 6.288C9.2325 6.472 9.1685 6.628 9.0405 6.756C8.9125 6.884 8.7605 6.948 8.5845 6.948ZM8.5845 12.06C8.4085 12.06 8.2565 11.996 8.1285 11.868C8.0085 11.74 7.9485 11.584 7.9485 11.4C7.9485 11.216 8.0085 11.064 8.1285 10.944C8.2565 10.816 8.4085 10.752 8.5845 10.752C8.7605 10.752 8.9125 10.816 9.0405 10.944C9.1685 11.064 9.2325 11.216 9.2325 11.4C9.2325 11.584 9.1685 11.74 9.0405 11.868C8.9125 11.996 8.7605 12.06 8.5845 12.06ZM13.8275 12.072C13.1795 12.072 12.5995 11.9 12.0875 11.556C11.5835 11.212 11.1875 10.72 10.8995 10.08C10.6195 9.432 10.4795 8.672 10.4795 7.8C10.4795 6.928 10.6195 6.172 10.8995 5.532C11.1875 4.884 11.5835 4.388 12.0875 4.044C12.5995 3.7 13.1795 3.528 13.8275 3.528C14.4755 3.528 15.0515 3.7 15.5555 4.044C16.0675 4.388 16.4675 4.884 16.7555 5.532C17.0435 6.172 17.1875 6.928 17.1875 7.8C17.1875 8.672 17.0435 9.432 16.7555 10.08C16.4675 10.72 16.0675 11.212 15.5555 11.556C15.0515 11.9 14.4755 12.072 13.8275 12.072ZM13.8275 11.28C14.3155 11.28 14.7435 11.144 15.1115 10.872C15.4875 10.6 15.7795 10.204 15.9875 9.684C16.1955 9.164 16.2995 8.536 16.2995 7.8C16.2995 7.064 16.1955 6.436 15.9875 5.916C15.7795 5.396 15.4875 5 15.1115 4.728C14.7435 4.456 14.3155 4.32 13.8275 4.32C13.3395 4.32 12.9075 4.456 12.5315 4.728C12.1635 5 11.8755 5.396 11.6675 5.916C11.4595 6.436 11.3555 7.064 11.3555 7.8C11.3555 8.536 11.4595 9.164 11.6675 9.684C11.8755 10.204 12.1635 10.6 12.5315 10.872C12.9075 11.144 13.3395 11.28 13.8275 11.28ZM25.5648 9.792H23.8848V12H23.0208V9.792H18.2808V9.168L22.7328 3.6H23.6928L19.3968 9.024H23.0448V7.08H23.8848V9.024H25.5648V9.792ZM33.387 3.6C34.459 3.6 35.299 3.856 35.907 4.368C36.515 4.88 36.819 5.584 36.819 6.48C36.819 7.376 36.515 8.08 35.907 8.592C35.299 9.096 34.459 9.348 33.387 9.348H31.131V12H30.243V3.6H33.387ZM33.363 8.568C34.195 8.568 34.831 8.388 35.271 8.028C35.711 7.66 35.931 7.144 35.931 6.48C35.931 5.8 35.711 5.28 35.271 4.92C34.831 4.552 34.195 4.368 33.363 4.368H31.131V8.568H33.363ZM47.4631 3.6V12H46.6111V5.28L43.3111 10.932H42.8911L39.5911 5.316V12H38.7391V3.6H39.4711L43.1191 9.828L46.7311 3.6H47.4631Z" transform="translate(164.119 4.5)" fill="white"/>
</g>
<defs>
<filter id="filter0_d" x="-6.73926" y="-8" width="390" height="38" filterUnits="userSpaceOnUse" color-interpolation-filters="sRGB">
<feFlood flood-opacity="0" result="BackgroundImageFix"/>
<feColorMatrix in="SourceAlpha" type="matrix" values="0 0 0 0 0 0 0 0 0 0 0 0 0 0 0 0 0 0 255 0"/>
<feOffset/>
<feGaussianBlur stdDeviation="5"/>
<feColorMatrix type="matrix" values="0 0 0 0 0 0 0 0 0 0 0 0 0 0 0 0 0 0 0.15 0"/>
<feBlend mode="normal" in2="BackgroundImageFix" result="effect1_dropShadow"/>
<feBlend mode="normal" in="SourceGraphic" in2="effect1_dropShadow" result="shape"/>
</filter>
</defs>
</svg>
